<mxfile host="Electron" modified="2023-09-04T22:34:13.696Z" agent="Mozilla/5.0 (Windows NT 10.0; Win64; x64) AppleWebKit/537.36 (KHTML, like Gecko) draw.io/21.6.8 Chrome/114.0.5735.289 Electron/25.5.0 Safari/537.36" etag="4lda24RZK1HNjjtou5AA" version="21.6.8" type="device">
  <diagram name="Страница — 1" id="EChzRBOfX8Rg2iwQ6mTR">
    <mxGraphModel dx="1329" dy="794" grid="1" gridSize="10" guides="1" tooltips="1" connect="1" arrows="1" fold="1" page="1" pageScale="1" pageWidth="827" pageHeight="1169" math="0" shadow="0">
      <root>
        <mxCell id="0" />
        <mxCell id="1" parent="0" />
        <mxCell id="bGb7dt80J6LKubrv_jiA-1" value="&lt;h1&gt;Singleton&lt;/h1&gt;&lt;p&gt;Диаграмма классов паттерна &quot;Singleton&quot;&lt;/p&gt;" style="text;html=1;strokeColor=none;fillColor=none;spacing=5;spacingTop=-20;whiteSpace=wrap;overflow=hidden;rounded=0;" vertex="1" parent="1">
          <mxGeometry x="10" y="20" width="290" height="70" as="geometry" />
        </mxCell>
        <mxCell id="bGb7dt80J6LKubrv_jiA-5" value="Singleton" style="swimlane;fontStyle=1;align=center;verticalAlign=top;childLayout=stackLayout;horizontal=1;startSize=26;horizontalStack=0;resizeParent=1;resizeParentMax=0;resizeLast=0;collapsible=1;marginBottom=0;whiteSpace=wrap;html=1;" vertex="1" parent="1">
          <mxGeometry x="410" y="200" width="180" height="112" as="geometry" />
        </mxCell>
        <mxCell id="bGb7dt80J6LKubrv_jiA-6" value="- INSTANCE: Singleton" style="text;strokeColor=none;fillColor=none;align=left;verticalAlign=top;spacingLeft=4;spacingRight=4;overflow=hidden;rotatable=0;points=[[0,0.5],[1,0.5]];portConstraint=eastwest;whiteSpace=wrap;html=1;" vertex="1" parent="bGb7dt80J6LKubrv_jiA-5">
          <mxGeometry y="26" width="180" height="26" as="geometry" />
        </mxCell>
        <mxCell id="bGb7dt80J6LKubrv_jiA-7" value="" style="line;strokeWidth=1;fillColor=none;align=left;verticalAlign=middle;spacingTop=-1;spacingLeft=3;spacingRight=3;rotatable=0;labelPosition=right;points=[];portConstraint=eastwest;strokeColor=inherit;" vertex="1" parent="bGb7dt80J6LKubrv_jiA-5">
          <mxGeometry y="52" width="180" height="8" as="geometry" />
        </mxCell>
        <mxCell id="bGb7dt80J6LKubrv_jiA-8" value="- Singleton()" style="text;strokeColor=none;fillColor=none;align=left;verticalAlign=top;spacingLeft=4;spacingRight=4;overflow=hidden;rotatable=0;points=[[0,0.5],[1,0.5]];portConstraint=eastwest;whiteSpace=wrap;html=1;" vertex="1" parent="bGb7dt80J6LKubrv_jiA-5">
          <mxGeometry y="60" width="180" height="26" as="geometry" />
        </mxCell>
        <mxCell id="bGb7dt80J6LKubrv_jiA-4" value="+ static getInstance(): Singleton" style="text;strokeColor=none;fillColor=none;align=left;verticalAlign=top;spacingLeft=4;spacingRight=4;overflow=hidden;rotatable=0;points=[[0,0.5],[1,0.5]];portConstraint=eastwest;whiteSpace=wrap;html=1;" vertex="1" parent="bGb7dt80J6LKubrv_jiA-5">
          <mxGeometry y="86" width="180" height="26" as="geometry" />
        </mxCell>
        <mxCell id="bGb7dt80J6LKubrv_jiA-9" value="Client#1" style="swimlane;fontStyle=0;childLayout=stackLayout;horizontal=1;startSize=26;fillColor=none;horizontalStack=0;resizeParent=1;resizeParentMax=0;resizeLast=0;collapsible=1;marginBottom=0;whiteSpace=wrap;html=1;" vertex="1" parent="1">
          <mxGeometry x="20" y="190" width="140" height="52" as="geometry" />
        </mxCell>
        <mxCell id="bGb7dt80J6LKubrv_jiA-10" value="Client#2" style="swimlane;fontStyle=0;childLayout=stackLayout;horizontal=1;startSize=26;fillColor=none;horizontalStack=0;resizeParent=1;resizeParentMax=0;resizeLast=0;collapsible=1;marginBottom=0;whiteSpace=wrap;html=1;" vertex="1" parent="1">
          <mxGeometry x="65" y="270" width="140" height="52" as="geometry" />
        </mxCell>
        <mxCell id="bGb7dt80J6LKubrv_jiA-11" value="Client#3" style="swimlane;fontStyle=0;childLayout=stackLayout;horizontal=1;startSize=26;fillColor=none;horizontalStack=0;resizeParent=1;resizeParentMax=0;resizeLast=0;collapsible=1;marginBottom=0;whiteSpace=wrap;html=1;" vertex="1" parent="1">
          <mxGeometry x="184" y="350" width="140" height="52" as="geometry" />
        </mxCell>
        <mxCell id="bGb7dt80J6LKubrv_jiA-16" value="Use" style="endArrow=open;endSize=12;dashed=1;html=1;rounded=0;entryX=0.638;entryY=1.235;entryDx=0;entryDy=0;exitX=0;exitY=0.5;exitDx=0;exitDy=0;entryPerimeter=0;" edge="1" parent="1" source="bGb7dt80J6LKubrv_jiA-4" target="bGb7dt80J6LKubrv_jiA-20">
          <mxGeometry width="160" relative="1" as="geometry">
            <mxPoint x="420" y="310" as="sourcePoint" />
            <mxPoint x="215" y="293" as="targetPoint" />
          </mxGeometry>
        </mxCell>
        <mxCell id="bGb7dt80J6LKubrv_jiA-18" value="Singleton getInstance() {&lt;br&gt;&lt;br&gt;return INSTANCE;&lt;br&gt;&lt;br&gt;}" style="shape=note;size=20;whiteSpace=wrap;html=1;" vertex="1" parent="1">
          <mxGeometry x="610" y="200" width="170" height="110" as="geometry" />
        </mxCell>
        <mxCell id="bGb7dt80J6LKubrv_jiA-19" value="BaseClient" style="swimlane;fontStyle=0;childLayout=stackLayout;horizontal=1;startSize=26;fillColor=none;horizontalStack=0;resizeParent=1;resizeParentMax=0;resizeLast=0;collapsible=1;marginBottom=0;whiteSpace=wrap;html=1;" vertex="1" parent="1">
          <mxGeometry x="160" y="130" width="270" height="52" as="geometry" />
        </mxCell>
        <mxCell id="bGb7dt80J6LKubrv_jiA-20" value="# Singlton getSingleton()&lt;span style=&quot;background-color: initial;&quot;&gt;: Singleton&lt;/span&gt;" style="text;strokeColor=none;fillColor=none;align=left;verticalAlign=top;spacingLeft=4;spacingRight=4;overflow=hidden;rotatable=0;points=[[0,0.5],[1,0.5]];portConstraint=eastwest;whiteSpace=wrap;html=1;" vertex="1" parent="bGb7dt80J6LKubrv_jiA-19">
          <mxGeometry y="26" width="270" height="26" as="geometry" />
        </mxCell>
        <mxCell id="bGb7dt80J6LKubrv_jiA-21" value="Extends" style="endArrow=block;endSize=16;endFill=0;html=1;rounded=0;exitX=0.5;exitY=0;exitDx=0;exitDy=0;entryX=0.486;entryY=1.021;entryDx=0;entryDy=0;entryPerimeter=0;" edge="1" parent="1" source="bGb7dt80J6LKubrv_jiA-11" target="bGb7dt80J6LKubrv_jiA-20">
          <mxGeometry x="0.0105" width="160" relative="1" as="geometry">
            <mxPoint x="672" y="196" as="sourcePoint" />
            <mxPoint x="490" y="-22" as="targetPoint" />
            <mxPoint as="offset" />
          </mxGeometry>
        </mxCell>
        <mxCell id="bGb7dt80J6LKubrv_jiA-22" value="Extends" style="endArrow=block;endSize=16;endFill=0;html=1;rounded=0;entryX=0.42;entryY=1.107;entryDx=0;entryDy=0;entryPerimeter=0;" edge="1" parent="1" source="bGb7dt80J6LKubrv_jiA-10" target="bGb7dt80J6LKubrv_jiA-20">
          <mxGeometry x="0.0105" width="160" relative="1" as="geometry">
            <mxPoint x="264" y="360" as="sourcePoint" />
            <mxPoint x="301" y="193" as="targetPoint" />
            <mxPoint as="offset" />
          </mxGeometry>
        </mxCell>
        <mxCell id="bGb7dt80J6LKubrv_jiA-23" value="Extends" style="endArrow=block;endSize=16;endFill=0;html=1;rounded=0;entryX=0.198;entryY=1.107;entryDx=0;entryDy=0;entryPerimeter=0;exitX=1;exitY=0.5;exitDx=0;exitDy=0;" edge="1" parent="1" source="bGb7dt80J6LKubrv_jiA-9" target="bGb7dt80J6LKubrv_jiA-20">
          <mxGeometry x="0.0105" width="160" relative="1" as="geometry">
            <mxPoint x="177" y="280" as="sourcePoint" />
            <mxPoint x="283" y="195" as="targetPoint" />
            <mxPoint as="offset" />
          </mxGeometry>
        </mxCell>
      </root>
    </mxGraphModel>
  </diagram>
</mxfile>
